<svg width="1024" height="1024" viewBox="0 0 1024 1024" fill="none" xmlns="http://www.w3.org/2000/svg">
  <defs>
    <linearGradient id="bg" x1="140" y1="96" x2="884" y2="928" gradientUnits="userSpaceOnUse">
      <stop offset="0" stop-color="#25272D"/>
      <stop offset="1" stop-color="#0D0E12"/>
    </linearGradient>
    <linearGradient id="frame" x1="292" y1="212" x2="732" y2="772" gradientUnits="userSpaceOnUse">
      <stop offset="0" stop-color="#F5F6F8"/>
      <stop offset="1" stop-color="#D9DDE4"/>
    </linearGradient>
    <linearGradient id="photo" x1="368" y1="432" x2="656" y2="656" gradientUnits="userSpaceOnUse">
      <stop offset="0" stop-color="#C5CCD7"/>
      <stop offset="1" stop-color="#7C8594"/>
    </linearGradient>
    <radialGradient id="glow" cx="0" cy="0" r="1" gradientUnits="userSpaceOnUse" gradientTransform="translate(512 326) rotate(90) scale(382 382)">
      <stop offset="0" stop-color="#FFFFFF" stop-opacity="0.16"/>
      <stop offset="1" stop-color="#FFFFFF" stop-opacity="0"/>
    </radialGradient>
    <filter id="shadow" x="168" y="144" width="688" height="768" filterUnits="userSpaceOnUse" color-interpolation-filters="sRGB">
      <feFlood flood-opacity="0" result="BackgroundImageFix"/>
      <feColorMatrix in="SourceAlpha" type="matrix" values="0 0 0 0 0 0 0 0 0 0 0 0 0 0 0 0 0 0 127 0" result="hardAlpha"/>
      <feOffset dy="28"/>
      <feGaussianBlur stdDeviation="34"/>
      <feColorMatrix type="matrix" values="0 0 0 0 0 0 0 0 0 0 0 0 0 0 0 0 0 0 0.38 0"/>
      <feBlend mode="normal" in2="BackgroundImageFix" result="effect1_dropShadow_1_1"/>
      <feBlend mode="normal" in="SourceGraphic" in2="effect1_dropShadow_1_1" result="shape"/>
    </filter>
    <clipPath id="photoClip">
      <rect x="368" y="432" width="288" height="224" rx="48"/>
    </clipPath>
  </defs>

  <rect width="1024" height="1024" rx="224" fill="url(#bg)"/>
  <rect width="1024" height="1024" rx="224" fill="url(#glow)"/>

  <g filter="url(#shadow)">
    <rect x="256" y="188" width="512" height="620" rx="116" fill="#111319"/>
    <rect x="276" y="208" width="472" height="580" rx="96" fill="#171A21"/>
    <rect x="288" y="220" width="448" height="556" rx="88" stroke="url(#frame)" stroke-width="20"/>

    <rect x="352" y="176" width="52" height="104" rx="26" fill="#EFF2F6"/>
    <rect x="620" y="176" width="52" height="104" rx="26" fill="#EFF2F6"/>

    <line x1="320" y1="344" x2="704" y2="344" stroke="#E9EDF3" stroke-opacity="0.92" stroke-width="20" stroke-linecap="round"/>

    <rect x="368" y="432" width="288" height="224" rx="48" fill="url(#photo)"/>
    <g clip-path="url(#photoClip)">
      <rect x="368" y="432" width="288" height="224" fill="url(#photo)"/>
      <path d="M352 676L454 560C472 540 500 536 520 552L564 587C578 598 598 600 614 590L676 552L700 676H352Z" fill="#5E6775"/>
      <circle cx="446" cy="496" r="34" fill="#EEF2F6" fill-opacity="0.88"/>
      <path d="M386 650L478 558C493 543 517 540 536 551L590 582C603 589 619 589 632 581L690 544V676H386V650Z" fill="#8F99A8" fill-opacity="0.92"/>
    </g>

    <circle cx="512" cy="718" r="18" fill="#EFF2F6" fill-opacity="0.96"/>
  </g>
</svg>
